/* XPM */
static char * backg_map_xpm[] = {
"128 128 2 1",
" 	c #CCB88D",
".	c #C9AA8E",
"         .....  .............    ...       ...  ......                   .....  .............    ...       ...  ......          ",
"        ...... .....  .......               ... .....                   ...... .....  .......               ... .....           ",
"       .....  ......  .......               ........                   .....  ......  .......               ........            ",
"      ...... .......  .......               ........                  ...... .......  .......               ........            ",
"     ...... ........   ......                ......                  ...... ........   ......                ......             ",
"     ....  .........   ......      ....      .....                   ....  .........   ......      ....      .....              ",
"   .....  ...........   .   ..     .....     .....      ...        .....  ...........   .   ..     .....     .....      ...     ",
"  .....  ............       ...  .......   .......     ....       .....  ............       ...  .......   .......     ....     ",
"  ....  .............       ..  ......    ..... ...   ....        ....  .............       ..  ......    ..... ...   ....      ",
"....   .......  .   .       .. .....      ...    ... ....       ....   .......  .   .       .. .....      ...    ... ....       ",
"....  ........              . .....              .......        ....  ........              . .....              .......        ",
"     ..........   ..        ......               ......              ..........   ..        ......               ......         ",
"    .........    ..         ....                .....               .........    ..         ....                .....           ",
"   .........     .         .....               .....               .........     .         .....               .....            ",
"  .........    ..        ......              .....                .........    ..        ......              .....              ",
"  .......     ......    .....               .....                 .......     ......    .....               .....               ",
" .......    ........   .....                ....                 .......    ........   .....                ....                ",
".......    .....  ..  ......           .  ....                .........    .....  ..  ......           .  ....                ..",
".....                 ......           .......              .........                 ......           .......              ....",
"....                  ......          ......               .........                  ......          ......               .....",
"                      ......        .....        ..                                   ......        .....        ..             ",
"                     .....          ...         ...                                  .....          ...         ...             ",
"                     .....        ....         ....                                  .....        ....         ....             ",
"..  ......    ...   .......      ....        ....       ..........  ......    ...   .......      ....        ....       ........",
".........    ....   ......      .....       ....        .................    ....   ......      .....       ....        ........",
"........    ...     .....     ......       .....       .................    ...     .....     ......       .....       .........",
"......     ....      ....    ......       ......       ...............     ....      ....    ......       ......       .........",
".....    ......      ....  .......       .....         ..............    ......      ....  .......       .....         .........",
"...     .......       ...........       .....          ............     .......       ...........       .....          .........",
"..    ........    .   ...........     .......           ..........    ........    .   ...........     .......           ........",
"     ........          ..........    ..... ..            .......     ........          ..........    ..... ..            .......",
"    ....  ..    .. ..  .........    .........           .......     ....  ..    .. ..  .........    .........           ....... ",
"  ....          ......  .......   ...........        .....        ....          ......  .......   ...........        .....      ",
" ....           ......  .....    ...........       ......        ....           ......  .....    ...........       ......       ",
"...     ..       .....   ...   ............        ....        ....     ..       .....   ...   ............        ....        .",
"..      ..      .......   ..  ............        ....       .....      ..      .......   ..  ............        ....       ...",
".       ...  ...........   ..............        ....       .....       ...  ...........   ..............        ....       ....",
"         ...............   .............         ... ...    ...          ...............   .............         ... ...    ... ",
"...    ..................  ............              ..............    ..................  ............              ...........",
"..     ...........  ......  ..........            ................     ...........  ......  ..........            ..............",
".     ...........    ......  .......             ................     ...........    ......  .......             ...............",
"     ...........     ......  .......           .................     ...........     ......  .......           .................",
"     ...........      .....  .......................                 ...........      .....  .......................            ",
"    ...........        .....  ......................                ...........        .....  ......................            ",
"   ...........   .     ......  .....................               ...........   .     ......  .....................            ",
"  ...........   .        ..... ..  ............   .               ...........   .        ..... ..  ............   .             ",
" ...........    . .      ......    ...........                   ...........    . .      ......    ...........                  ",
" .........     ... .     ....     ............                   .........     ... .     ....     ............                  ",
"  .......      ....       ..    .............                     .......      ....       ..    .............                   ",
"  ......      .....      ..    .............    ...               ......      .....      ..    .............    ...             ",
"   .....     .......   ..    ..............    ....          .     .....     .......   ..    ..............    ....          .  ",
"   ....    ..........  .    ..............    ....          ...    ....    ..........  .    ..............    ....          ... ",
"   ..     .............       ...........    ....          .....   ..     .............       ...........    ....          .....",
"         ....  ......         ..........    ....          ......         ....  ......         ..........    ....          ......",
".       ...       ..          .........    ....           .......       ...       ..          .........    ....           ......",
".      ...       ...          ........    ....           ........      ...       ...          ........    ....           .......",
"     ....       ......        ........   ....            ......      ....       ......        ........   ....            ...... ",
"    ....       ........     .........   ....             .....      ....       ........     .........   ....             .....  ",
"   ...        .........      ......   .....              ....      ...        .........      ......   .....              ....   ",
"  ...        ...........      ....    ....                ..      ...        ...........      ....    ....                ..    ",
" ....       .............     ...   ....                         ....       .............     ...   ....                        ",
"...        ...............  .....  ....   ...                  ....        ...............  .....  ....   ...                  .",
"..         .....................  ....    ...                 ....         .....................  ....    ...                 ..",
".         ..... ...............  ....      ...  .......        ..         ..... ...............  ....      ...  .......        .",
"         .....  .............    ...       ...  ......                   .....  .............    ...       ...  ......          ",
"        ...... .....  .......               ... .....                   ...... .....  .......               ... .....           ",
"       .....  ......  .......               ........                   .....  ......  .......               ........            ",
"      ...... .......  .......               ........                  ...... .......  .......               ........            ",
"     ...... ........   ......                ......                  ...... ........   ......                ......             ",
"     ....  .........   ......      ....      .....                   ....  .........   ......      ....      .....              ",
"   .....  ...........   .   ..     .....     .....      ...        .....  ...........   .   ..     .....     .....      ...     ",
"  .....  ............       ...  .......   .......     ....       .....  ............       ...  .......   .......     ....     ",
"  ....  .............       ..  ......    ..... ...   ....        ....  .............       ..  ......    ..... ...   ....      ",
"....   .......  .   .       .. .....      ...    ... ....       ....   .......  .   .       .. .....      ...    ... ....       ",
"....  ........              . .....              .......        ....  ........              . .....              .......        ",
"     ..........   ..        ......               ......              ..........   ..        ......               ......         ",
"    .........    ..         ....                .....               .........    ..         ....                .....           ",
"   .........     .         .....               .....               .........     .         .....               .....            ",
"  .........    ..        ......              .....                .........    ..        ......              .....              ",
"  .......     ......    .....               .....                 .......     ......    .....               .....               ",
" .......    ........   .....                ....                 .......    ........   .....                ....                ",
".......    .....  ..  ......           .  ....                .........    .....  ..  ......           .  ....                ..",
".....                 ......           .......              .........                 ......           .......              ....",
"....                  ......          ......               .........                  ......          ......               .....",
"                      ......        .....        ..                                   ......        .....        ..             ",
"                     .....          ...         ...                                  .....          ...         ...             ",
"                     .....        ....         ....                                  .....        ....         ....             ",
"..  ......    ...   .......      ....        ....       ..........  ......    ...   .......      ....        ....       ........",
".........    ....   ......      .....       ....        .................    ....   ......      .....       ....        ........",
"........    ...     .....     ......       .....       .................    ...     .....     ......       .....       .........",
"......     ....      ....    ......       ......       ...............     ....      ....    ......       ......       .........",
".....    ......      ....  .......       .....         ..............    ......      ....  .......       .....         .........",
"...     .......       ...........       .....          ............     .......       ...........       .....          .........",
"..    ........    .   ...........     .......           ..........    ........    .   ...........     .......           ........",
"     ........          ..........    ..... ..            .......     ........          ..........    ..... ..            .......",
"    ....  ..    .. ..  .........    .........           .......     ....  ..    .. ..  .........    .........           ....... ",
"  ....          ......  .......   ...........        .....        ....          ......  .......   ...........        .....      ",
" ....           ......  .....    ...........       ......        ....           ......  .....    ...........       ......       ",
"...     ..       .....   ...   ............        ....        ....     ..       .....   ...   ............        ....        .",
"..      ..      .......   ..  ............        ....       .....      ..      .......   ..  ............        ....       ...",
".       ...  ...........   ..............        ....       .....       ...  ...........   ..............        ....       ....",
"         ...............   .............         ... ...    ...          ...............   .............         ... ...    ... ",
"...    ..................  ............              ..............    ..................  ............              ...........",
"..     ...........  ......  ..........            ................     ...........  ......  ..........            ..............",
".     ...........    ......  .......             ................     ...........    ......  .......             ...............",
"     ...........     ......  .......           .................     ...........     ......  .......           .................",
"     ...........      .....  .......................                 ...........      .....  .......................            ",
"    ...........        .....  ......................                ...........        .....  ......................            ",
"   ...........   .     ......  .....................               ...........   .     ......  .....................            ",
"  ...........   .        ..... ..  ............   .               ...........   .        ..... ..  ............   .             ",
" ...........    . .      ......    ...........                   ...........    . .      ......    ...........                  ",
" .........     ... .     ....     ............                   .........     ... .     ....     ............                  ",
"  .......      ....       ..    .............                     .......      ....       ..    .............                   ",
"  ......      .....      ..    .............    ...               ......      .....      ..    .............    ...             ",
"   .....     .......   ..    ..............    ....          .     .....     .......   ..    ..............    ....          .  ",
"   ....    ..........  .    ..............    ....          ...    ....    ..........  .    ..............    ....          ... ",
"   ..     .............       ...........    ....          .....   ..     .............       ...........    ....          .....",
"         ....  ......         ..........    ....          ......         ....  ......         ..........    ....          ......",
".       ...       ..          .........    ....           .......       ...       ..          .........    ....           ......",
".      ...       ...          ........    ....           ........      ...       ...          ........    ....           .......",
"     ....       ......        ........   ....            ......      ....       ......        ........   ....            ...... ",
"    ....       ........     .........   ....             .....      ....       ........     .........   ....             .....  ",
"   ...        .........      ......   .....              ....      ...        .........      ......   .....              ....   ",
"  ...        ...........      ....    ....                ..      ...        ...........      ....    ....                ..    ",
" ....       .............     ...   ....                         ....       .............     ...   ....                        ",
"...        ...............  .....  ....   ...                  ....        ...............  .....  ....   ...                  .",
"..         .....................  ....    ...                 ....         .....................  ....    ...                 ..",
".         ..... ...............  ....      ...  .......        ..         ..... ...............  ....      ...  .......        ."};
