/* XPM */
static char *_9c7933914c44d9fe4e366912d30720elbHJ9aYZNCr4IkSR[] = {
/* columns rows colors chars-per-pixel */
"32 32 11 1 ",
"  c None",
". c #2A304E",
"X c #FCFEFE",
"o c #94A0BA",
"O c #667291",
"+ c #1C1A30",
"@ c #1C121B",
"# c #5E2C29",
"$ c #FC5003",
"% c #FDA216",
"& c white",
/* pixels */
"                                ",
"                                ",
"                                ",
"                                ",
"                                ",
"            ......              ",
"          ..XXXXXo..            ",
"        ..XXXXXXXXoo.           ",
"       .XXXXXOOOOOOOo.          ",
"      .XXXXXOOOOOOOOO.          ",
"     .XXXXXXOOO..OOOO..         ",
"     .XXXXXOOO.XXOOOOX.         ",
"    .XXXXXXOOO+XXOOOOX.         ",
"    .XXXXXXOOO+++O@@O+O.        ",
"    .XXOXXXOOOOOOO@@@OO.        ",
"     ..OXXXOOOOOOO@@@OO.        ",
"      .oXXXXOOOOOO..@OO.        ",
"       .XXXXOOOOOOOOOO.         ",
"       .XXXXXOOOOXooOO.         ",
"        .XXXXXXXXXooo.          ",
"        .##XXXXXXooo.           ",
"        .Xo####oooo#.           ",
"        .XXXOXo####OO.          ",
"       .XXXXOXXX$%%oO.          ",
"       .XXXOXXXX$%%oOO.         ",
"       .XXXOXXXX$%%oOO.         ",
"        ..OXXXXOoooOOO.         ",
"          .XXXXOooO...          ",
"          .XXXXX.OO.            ",
"           .XXXX.OO.            ",
"           .XXXX.O.             ",
"            ....OO.             "
};
