/* XPM */
static char *b893f2c755fa4a1fb30b30b924da197aMqU4SWB7yuIkpSqz[] = {
/* columns rows colors chars-per-pixel */
"32 32 11 1 ",
"  c None",
". c #2A304E",
"X c #FCFEFE",
"o c #94A0BA",
"O c #667291",
"+ c #1C1A30",
"@ c #1C121B",
"# c #5E2C29",
"$ c #FC5003",
"% c #FDA216",
"& c white",
/* pixels */
"                                ",
"                                ",
"                                ",
"                                ",
"                                ",
"                                ",
"                                ",
"            ......              ",
"          ..XXXXXo..            ",
"        ..XXXXXXXXoo.           ",
"      ..XXXXXOOOOOOOo.          ",
"     .XXXXXXOOOOOOOOO.          ",
"    .XXXXXXXOOO..OOOO..         ",
"   .XXXXXXXOOO.XXOOOOX.         ",
"   .XXXOXXXOOO+++OOOO+.         ",
"    ...OXXXOOO+++O@@O+O.        ",
"      .oXXXOOOOOOO@@@OO.        ",
"      .XXXXOOOOOOO@@@OO.        ",
"      .XXXXXOOOOOO..@OO.        ",
"       .XXXXOOOOOOOOOO.         ",
"       .XXXXXOOOOXooOO.         ",
"        .XXXXXXXXXooo.          ",
"        .##XXXXXXooo.           ",
"        .Xo####oooo#O.          ",
"       .XXXXXXo####OOO.         ",
"      .XXXXXOXXX$%%oOOO.        ",
"      .XXXXOXXXX$%%oOOO.        ",
"      .XXX.XXXXX$%%oOOO.        ",
"       ... .XXXXOooO...         ",
"           .XXXXOoo.            ",
"            .XXXX..             ",
"            .XXXX.              "
};
