/* XPM */
static char * s_3_xpm[] = {
"32 41 57 1",
" 	c None",
".	c #341C27",
"+	c #5E312A",
"@	c #884B2B",
"#	c #743B2B",
"$	c #7A402B",
"%	c #602C2C",
"&	c #6D362B",
"*	c #4A2429",
"=	c #55282A",
"-	c #69372A",
";	c #783E2B",
">	c #80442B",
",	c #5E3329",
"'	c #5F2F2A",
")	c #51262A",
"!	c #562B29",
"~	c #502929",
"{	c #DA863E",
"]	c #C45938",
"^	c #D6763D",
"/	c #CF573C",
"(	c #6B302D",
"_	c #5B2B2C",
":	c #3F2028",
"<	c #A53030",
"[	c #D2663C",
"}	c #422128",
"|	c #76352F",
"1	c #913A32",
"2	c #9D3E33",
"3	c #974134",
"4	c #BA4336",
"5	c #D46E3D",
"6	c #000000",
"7	c #D77C3D",
"8	c #CB603A",
"9	c #151D28",
"0	c #B33D34",
"a	c #E8C170",
"b	c #10141F",
"c	c #D87D49",
"d	c #E3AD5F",
"e	c #DF9D5E",
"f	c #DB8C56",
"g	c #752438",
"h	c #B9694C",
"i	c #7B2731",
"j	c #892F33",
"k	c #812736",
"l	c #8F2E30",
"m	c #4D2B32",
"n	c #A43433",
"o	c #952C32",
"p	c #5B2031",
"q	c #5F2132",
"r	c #54202F",
"                                ",
"                                ",
"                                ",
"                                ",
"                                ",
"                                ",
"                                ",
"                                ",
"                                ",
"         .+@#              #@$  ",
"         ..%&@@@        @@@$%@  ",
"         .*%=$@@%%%  @@@@@@-@-  ",
"          *.%;@@#%%  @@@@@>@.,  ",
"          .=%@$$@##  ##@--@%'.  ",
"           )%%!'%@$@%%%%.~%%%   ",
"   {{{{    *...%%%@'=%%...%%%   ",
"   ]{{^/   ....%(..%%.._:%%%%   ",
"   </{/[/   ..}|1/<..</23%%%    ",
"   4//{/5{{{666//<{{{{<//       ",
"   4<///{{{{{{{[/<{{{{///       ",
"   <4/////{{{{{78/9{{9///       ",
"    0<//////{{{{{/{{{///        ",
"    <<////////////{{{a//        ",
"    <<////////////aba///        ",
"    <<//////////////{{c/        ",
"    <<////////////{aaad         ",
"    <<///////////{aaaae         ",
"    <<<//<<//////{aaa/f         ",
"    <<<<<<g<//////{<gh/         ",
"     <<<<igj<////<<gkg          ",
"     <l<99.94///<<ggg           ",
"      9m99b99</<ngggg           ",
"      9999b99<<<ogggg           ",
"      9999999<<999pgq           ",
"      99999999m999..r           ",
"      999999999999b99           ",
"      9999999999 9b99           ",
"        9999999999999           ",
"          99999999999           ",
"            999999999           ",
"                                "};
