/* XPM */
static char * w_right_xpm[] = {
"64 64 7 1",
" 	c None",
".	c #394A50",
"+	c #202E37",
"@	c #151D28",
"#	c #819796",
"$	c #577277",
"%	c #10141F",
"                                                                ",
"                                                                ",
"                                                                ",
"                                                                ",
"                                                                ",
"                                                                ",
"                                                                ",
"                                                                ",
"                                                                ",
"                                                                ",
"                                                                ",
"                                                                ",
"                                                                ",
"                                                                ",
"                                                                ",
"                                                                ",
"                                                                ",
"                                                                ",
"                                                                ",
"                                     .                          ",
"                                    ..  .                       ",
"                                    ........                    ",
"                                    +......+..@                 ",
"                                  ...........+@                 ",
"                                  .......##..#$                 ",
"                                 ........###$                   ",
"                                  ......++$#                    ",
"                                 ........$                      ",
"                                 .........$                     ",
"                                .+........#                     ",
"                              ....+.......#                     ",
"                           ...............#                     ",
"                          ................#                     ",
"                         ................$$                     ",
"                         .............$$$$                      ",
"                         ............+$$$                       ",
"                        ...........@@++$$@@                     ",
"                        ..........@@@@+$@@@@@                   ",
"                        ..++....$@+@+@+$@@@@@                   ",
"                      @...@++..$+@%%%@++@@@@@                   ",
"                     @....+@@+$$@@@@@@@+@.@@@                   ",
"                 #   +...++@@+$$@@@@@@@@@@@@@                   ",
"                 $#+....+@@@$$$  @@@@@@@@@@@@                   ",
"                  $##..+$@@@+$@@@@@@@@@@@@@@@                   ",
"                  $$$##$@@@@++@@@@@@@@@@@@@@@                   ",
"                   $$$$@@@@@@++.@@@@@@@@@@@                     ",
"                     @@@@@@@@@++@@@@@@@@@                       ",
"                     @@@@@@@@@@@@@@@@@@                         ",
"                       @@@@@@@@@@@@@                            ",
"                         @@@@@@@@@                              ",
"                                                                ",
"                                                                ",
"                                                                ",
"                                                                ",
"                                                                ",
"                                                                ",
"                                                                ",
"                                                                ",
"                                                                ",
"                                                                ",
"                                                                ",
"                                                                ",
"                                                                ",
"                                                                "};
