/* XPM */
static char * exit_xpm[] = {
"84 64 270 2",
"  	c None",
". 	c #4C2A32",
"+ 	c #4B2A31",
"@ 	c #44252F",
"# 	c #563135",
"$ 	c #74443F",
"% 	c #764540",
"& 	c #5C3537",
"* 	c #3F232E",
"= 	c #1C1026",
"- 	c #0A0923",
"; 	c #2B1725",
"> 	c #311A26",
", 	c #2B1624",
"' 	c #211023",
") 	c #4E2C32",
"! 	c #522E33",
"~ 	c #623838",
"{ 	c #774640",
"] 	c #75453F",
"^ 	c #5A3436",
"/ 	c #472730",
"( 	c #43272F",
"_ 	c #3F242D",
": 	c #3A202A",
"< 	c #3D212A",
"[ 	c #46272D",
"} 	c #4E2D2F",
"| 	c #824D44",
"1 	c #73433E",
"2 	c #4F2C33",
"3 	c #693D3B",
"4 	c #7C4942",
"5 	c #573135",
"6 	c #543034",
"7 	c #6D403C",
"8 	c #6C3F3C",
"9 	c #512E33",
"0 	c #512E32",
"a 	c #6B3E3B",
"b 	c #77463F",
"c 	c #7C4941",
"d 	c #7D4A42",
"e 	c #7B4841",
"f 	c #7A4841",
"g 	c #7E4B43",
"h 	c #76453F",
"i 	c #6E413D",
"j 	c #5E3637",
"k 	c #603738",
"l 	c #7F4B43",
"m 	c #72433E",
"n 	c #532F33",
"o 	c #6E413C",
"p 	c #6F413C",
"q 	c #6C3F3B",
"r 	c #71423E",
"s 	c #7B4941",
"t 	c #41242B",
"u 	c #42252B",
"v 	c #71423D",
"w 	c #5E3638",
"x 	c #6F413D",
"y 	c #784740",
"z 	c #804C44",
"A 	c #73443E",
"B 	c #4D2C2F",
"C 	c #371E28",
"D 	c #48282D",
"E 	c #4A292E",
"F 	c #3E222B",
"G 	c #3D222A",
"H 	c #47282D",
"I 	c #4F2D30",
"J 	c #553034",
"K 	c #653A3A",
"L 	c #794741",
"M 	c #633939",
"N 	c #502D33",
"O 	c #4D2B33",
"P 	c #70423D",
"Q 	c #74443E",
"R 	c #653B38",
"S 	c #42252C",
"T 	c #231224",
"U 	c #241324",
"V 	c #281525",
"W 	c #2E1926",
"X 	c #2D1826",
"Y 	c #251424",
"Z 	c #2B1726",
"` 	c #3A1F2C",
" .	c #452630",
"..	c #482830",
"+.	c #492930",
"@.	c #73443F",
"#.	c #4F2C32",
"$.	c #4A2A2E",
"%.	c #361D29",
"&.	c #643A3A",
"*.	c #543031",
"=.	c #371E29",
"-.	c #2A1827",
";.	c #221426",
">.	c #231426",
",.	c #241526",
"'.	c #261627",
").	c #281627",
"!.	c #341C28",
"~.	c #3E222A",
"{.	c #47282C",
"].	c #4C2B2F",
"^.	c #492931",
"/.	c #3D212B",
"(.	c #4D2B32",
"_.	c #70413C",
":.	c #613839",
"<.	c #311A28",
"[.	c #3C202D",
"}.	c #75453E",
"|.	c #1F1226",
"1.	c #211427",
"2.	c #231427",
"3.	c #221427",
"4.	c #2D1926",
"5.	c #2D1825",
"6.	c #251324",
"7.	c #301A27",
"8.	c #45262E",
"9.	c #46272F",
"0.	c #361D28",
"a.	c #532E34",
"b.	c #48292D",
"c.	c #44262B",
"d.	c #522F31",
"e.	c #6B3F3B",
"f.	c #784640",
"g.	c #573134",
"h.	c #42242F",
"i.	c #40232E",
"j.	c #643A38",
"k.	c #180C23",
"l.	c #201226",
"m.	c #231527",
"n.	c #241527",
"o.	c #261526",
"p.	c #291727",
"q.	c #3A1F29",
"r.	c #341C26",
"s.	c #391F29",
"t.	c #5B3437",
"u.	c #754540",
"v.	c #251323",
"w.	c #241224",
"x.	c #49292E",
"y.	c #804C43",
"z.	c #462730",
"A.	c #814C44",
"B.	c #76463F",
"C.	c #593333",
"D.	c #281727",
"E.	c #1A1026",
"F.	c #211326",
"G.	c #241426",
"H.	c #291626",
"I.	c #2A1725",
"J.	c #321B28",
"K.	c #40232D",
"L.	c #553134",
"M.	c #3F222D",
"N.	c #3F232B",
"O.	c #6A3E3B",
"P.	c #7B4842",
"Q.	c #351E2A",
"R.	c #000222",
"S.	c #1E1023",
"T.	c #271525",
"U.	c #190F25",
"V.	c #130C24",
"W.	c #110B24",
"X.	c #211225",
"Y.	c #331C28",
"Z.	c #40232B",
"`.	c #49292D",
" +	c #4D2B2F",
".+	c #482731",
"++	c #593336",
"@+	c #72433D",
"#+	c #532F31",
"$+	c #6B3F3A",
"%+	c #74453E",
"&+	c #71433E",
"*+	c #543133",
"=+	c #40242D",
"-+	c #321C28",
";+	c #1D1126",
">+	c #281728",
",+	c #3B222C",
"'+	c #43272E",
")+	c #44282F",
"!+	c #40252D",
"~+	c #2E1825",
"{+	c #794740",
"]+	c #74453F",
"^+	c #6A3E3A",
"/+	c #543032",
"(+	c #46272C",
"_+	c #784741",
":+	c #45272C",
"<+	c #000624",
"[+	c #000022",
"}+	c #351F2B",
"|+	c #643A39",
"1+	c #764640",
"2+	c #281524",
"3+	c #221326",
"4+	c #C09473",
"5+	c #1C0D22",
"6+	c #201023",
"7+	c #3A1F2B",
"8+	c #4B2A2E",
"9+	c #3E242C",
"0+	c #3C232C",
"a+	c #693D3A",
"b+	c #241325",
"c+	c #201427",
"d+	c #AD7757",
"e+	c #391F28",
"f+	c #2C1826",
"g+	c #311B27",
"h+	c #43252C",
"i+	c #563134",
"j+	c #593335",
"k+	c #502D30",
"l+	c #45262D",
"m+	c #5B3534",
"n+	c #40242B",
"o+	c #2E1A28",
"p+	c #3E222D",
"q+	c #2E1826",
"r+	c #2F1925",
"s+	c #40232A",
"t+	c #42242E",
"u+	c #573235",
"v+	c #633A38",
"w+	c #2B1829",
"x+	c #2B1828",
"y+	c #683D3A",
"z+	c #3D232D",
"A+	c #44272F",
"B+	c #673C3B",
"C+	c #46282F",
"D+	c #39212B",
"E+	c #1D1226",
"F+	c #1E1125",
"G+	c #4E2C2F",
"H+	c #37202B",
"I+	c #673C3A",
"J+	c #361D2C",
"K+	c #1B0F26",
"L+	c #020723",
"M+	c #4E2B32",
"N+	c #3F252D",
"O+	c #3D232C",
"P+	c #321C2A",
"Q+	c #291728",
"R+	c #040724",
"S+	c #0E0B24",
"T+	c #1A1025",
"U+	c #1F1326",
"                                                                                                                                                                        ",
"                                                                                                                                                                        ",
"                                                                                                                                                                        ",
"                                                                                                                                                                        ",
"                                                                                                                                                                        ",
"                                                                                                                                                                        ",
"                                                                                                                                                                        ",
"                                                                                                                                                                        ",
"                                                                                                                                                                        ",
"                                                                                                                                                                        ",
"                                                                                                                                                                        ",
"                                                                                                                                                                        ",
"                                                                                                                                                                        ",
"                                                                                                                                                                        ",
"                                                                                                                                                                        ",
"                                                                                                                                                                        ",
"                                                                                                                                                                        ",
"                                                                                                                                                                        ",
"                                                                                                                                                                        ",
"                                                                                                                                                                        ",
"                                                                                                                                                                        ",
"                                                                                                                                                                        ",
"                                                                                                                                                                        ",
"                                                                                                                                                                        ",
"                                                                                                                                                                        ",
"                                                                                                                                                                        ",
"                                                                                                                                                                        ",
"                                                                                                                                                                        ",
"                                                                                                                                                                        ",
"                                                                                                                                                                        ",
"                                                    . + @ # $ % & * = - ; > , '                                                                                         ",
"                                                    ) . ! ~ { ] ^ / ( _ : < [ }                                                                                         ",
"                                                | 1 ! 2 3 { 4 1 5 6 7 8 9 0 a b c d e f 4 g                                                                             ",
"                                                h i j k % l l m n 0 o p n 9 q h $ ] f f ] r                                                                             ",
"                                f s d p t u v % k w x y f d z A B C D E F G H I J K f L M 6 N O                                                                         ",
"                                s 4 g P [ H m ] 0 + 8 L e L Q R S T U V W X Y Z ` ! q q 6  ...+.                                                                        ",
"                                d g z @.#.#.$ A $.%.#.&.y Q *.=.-.;.>.,.'.'.;.).!.~.{.].) ^.F /.+.(.                                                                    ",
"                                p _.v a & :.{ m ].<.[.5 ] }.*.C ).|.1.2.3.3.1.'.4.5.6.7.8.9.0.C ..a.                                                                    ",
"                                b.H c.d.e.f.4 1 g.h.i.J 1 s ] j.G k.l.m.3.3.m.n.'.o.;.p.=.q.r.s.9.t.u.|                                                                 ",
"                                v.6.w.x.m y.g m 6 z.! M ] l A.B.C.G D.E.F.G.n.m.m.3.3.n.H.; I.J.K.L.e.A                                                                 ",
"                                    M.6 m g g p S N.O.P.d g g 4 B.j.Q.R.S.T.,.m.m.n.n.F.U.V.W.X.Y.Z.`. +                                                                ",
"                                    .+++m d d @+#+I $+%+v P &+{ l h *+=+$.H -+F.|.;+E.>+,+'+)+!+C ~+V 6.                                                                ",
"                                            s {+]+^+/+(+H ].n M _+d h A B.^+:+S.V.<+[+}+|+$ 1+^+H 2+G.3+        4+4+                                                    ",
"                                            f 4 | v u 5+6+Z 7+! 8 h ] ] ] ^+8+=.9+!+0+*+1+A.f a+:+b+3+c+        4+4+                                                    ",
"                                d+d+                e+f+G.o.g+h+i+j+k+`.:+l+9.6 3 &+v h l y m+n+o+>.                                                                    ",
"                                d+d+                > g+'.n.Z !.* p+q+r+s+l+t+u+{ y.f ] 1 v+G k.|.3.                                                                    ",
"                                                            '.D.w+x+V (+^+y+z+A+]+d B+6 C+D+-.l.            f {+                                                        ",
"                                                            3.1.E+F+U G+y ] ,+H+I+O.N J+K+L+E+n.            f f                                                         ",
"                                    . (.(.(.(.(.    M+)                         N+O+P+Q+                                                                                ",
"                                    (.(.(.(.(.(.    (.(.                        R+S+T+U+                                                                                ",
"                                                                                                                                                                        ",
"                                                                                                                                                                        ",
"                                                                                                                                                                        ",
"                                                                                                                                                                        ",
"                                                                                                                                                                        ",
"                                                                                                                                                                        ",
"                                                                                                                                                                        ",
"                                                                                                                                                                        ",
"                                                                                                                                                                        ",
"                                                                                                                                                                        ",
"                                                                                                                                                                        ",
"                                                                                                                                                                        ",
"                                                                                                                                                                        ",
"                                                                                                                                                                        "};
