/* XPM */
static char * floor_xpm[] = {
"64 64 705 2",
"  	c None",
". 	c #A9CB58",
"+ 	c #A8CA58",
"@ 	c #A6C957",
"# 	c #A9CA58",
"$ 	c #A6C857",
"% 	c #639D3C",
"& 	c #81AF48",
"* 	c #A2C656",
"= 	c #A2C655",
"- 	c #7EAC46",
"; 	c #77A844",
"> 	c #9DC253",
", 	c #ABCC59",
"' 	c #AACC59",
") 	c #A0C454",
"! 	c #7FAD47",
"~ 	c #669E3D",
"{ 	c #7FAE47",
"] 	c #89B44B",
"^ 	c #87B34A",
"/ 	c #A0C455",
"( 	c #7CAB46",
"_ 	c #A5C857",
": 	c #A7C957",
"< 	c #96BD50",
"[ 	c #78A944",
"} 	c #79A944",
"| 	c #9EC254",
"1 	c #A9CB59",
"2 	c #ADCE5A",
"3 	c #87B24A",
"4 	c #659E3D",
"5 	c #9FC454",
"6 	c #AACB59",
"7 	c #9FC354",
"8 	c #7DAC46",
"9 	c #679F3E",
"0 	c #97BE51",
"a 	c #A1C555",
"b 	c #8AB44B",
"c 	c #8AB54B",
"d 	c #A3C656",
"e 	c #9EC253",
"f 	c #A7C958",
"g 	c #83B048",
"h 	c #6DA240",
"i 	c #84B049",
"j 	c #97BD51",
"k 	c #9EC354",
"l 	c #80AE47",
"m 	c #85B149",
"n 	c #7EAD46",
"o 	c #69A03F",
"p 	c #689F3E",
"q 	c #ACCD5A",
"r 	c #7CAC46",
"s 	c #AECE5B",
"t 	c #8BB54C",
"u 	c #69A13F",
"v 	c #7AA845",
"w 	c #000013",
"x 	c #535B32",
"y 	c #91B24E",
"z 	c #A4C957",
"A 	c #A7CA58",
"B 	c #515531",
"C 	c #70803E",
"D 	c #9EBC53",
"E 	c #AFD15B",
"F 	c #ABCD59",
"G 	c #A2C555",
"H 	c #96B350",
"I 	c #9BBA52",
"J 	c #A5C657",
"K 	c #8CB64C",
"L 	c #AFD25B",
"M 	c #ADD05B",
"N 	c #7AA945",
"O 	c #629A3C",
"P 	c #AED05B",
"Q 	c #AFD05B",
"R 	c #A4C856",
"S 	c #8CB84C",
"T 	c #A9CE59",
"U 	c #A2C756",
"V 	c #6E9E40",
"W 	c #458532",
"X 	c #9BBF52",
"Y 	c #9BC052",
"Z 	c #9DC153",
"` 	c #91B84E",
" .	c #6FA241",
"..	c #75A643",
"+.	c #71A141",
"@.	c #94B54F",
"#.	c #8FAE4D",
"$.	c #5B8939",
"%.	c #2B722D",
"&.	c #65983D",
"*.	c #66983D",
"=.	c #67993D",
"-.	c #5F943A",
";.	c #4B8A34",
">.	c #6B9C3F",
",.	c #8BB64C",
"'.	c #A3C756",
").	c #ADCD5A",
"!.	c #AECF5B",
"~.	c #ADCF5A",
"{.	c #6A9D3E",
"].	c #4A7F32",
"^.	c #596C35",
"/.	c #556134",
"(.	c #396130",
"_.	c #24622E",
":.	c #306D2C",
"<.	c #2F6D2C",
"[.	c #2D6D2B",
"}.	c #286B2B",
"|.	c #1F6629",
"1.	c #628C3B",
"2.	c #9EC154",
"3.	c #A3C856",
"4.	c #77A744",
"5.	c #70A241",
"6.	c #95BC50",
"7.	c #A0C555",
"8.	c #96BC50",
"9.	c #72A442",
"0.	c #A7CA57",
"a.	c #ADD05A",
"b.	c #9CC053",
"c.	c #61923C",
"d.	c #1C5E28",
"e.	c #150021",
"f.	c #170022",
"g.	c #223A2A",
"h.	c #264D2D",
"i.	c #263A28",
"j.	c #233A28",
"k.	c #1E3928",
"l.	c #0A2F26",
"m.	c #000D22",
"n.	c #5B7438",
"o.	c #A1C255",
"p.	c #A3CA56",
"q.	c #6B9B3F",
"r.	c #518B36",
"s.	c #90BA4E",
"t.	c #82B048",
"u.	c #85B34A",
"v.	c #5A9138",
"w.	c #589138",
"x.	c #93BD4F",
"y.	c #ACD15A",
"z.	c #A0C355",
"A.	c #5C863C",
"B.	c #004528",
"C.	c #221825",
"D.	c #2E0025",
"E.	c #312327",
"F.	c #322E29",
"G.	c #1D0026",
"H.	c #250026",
"I.	c #320027",
"J.	c #310026",
"K.	c #220022",
"L.	c #5B5934",
"M.	c #94A94D",
"N.	c #94B44E",
"O.	c #5D8E39",
"P.	c #3C8130",
"Q.	c #599539",
"R.	c #76A743",
"S.	c #91B94E",
"T.	c #A0C354",
"U.	c #79A845",
"V.	c #639A3C",
"W.	c #699F3E",
"X.	c #61973B",
"Y.	c #447E32",
"Z.	c #407B31",
"`.	c #588E39",
" +	c #76A244",
".+	c #96B750",
"++	c #8EAA4C",
"@+	c #516F37",
"#+	c #032E27",
"$+	c #2B1F27",
"%+	c #351326",
"&+	c #331026",
"*+	c #320F26",
"=+	c #180426",
"-+	c #331028",
";+	c #52202A",
">+	c #5C222B",
",+	c #58182A",
"'+	c #61382E",
")+	c #715D36",
"!+	c #6D7238",
"~+	c #4F8033",
"{+	c #3F8832",
"]+	c #488B34",
"^+	c #508E36",
"/+	c #579139",
"(+	c #76A443",
"_+	c #8CB74C",
":+	c #6C9B3F",
"<+	c #458432",
"[+	c #4F8C35",
"}+	c #4B8434",
"|+	c #346A30",
"1+	c #2A5E2F",
"2+	c #356831",
"3+	c #466C33",
"4+	c #596936",
"5+	c #575C33",
"6+	c #3D3D2C",
"7+	c #2D2127",
"8+	c #331D27",
"9+	c #321927",
"0+	c #2B1427",
"a+	c #271227",
"b+	c #211527",
"c+	c #371C28",
"d+	c #54272B",
"e+	c #5F2C2C",
"f+	c #5D2D2C",
"g+	c #5C1C2A",
"h+	c #5A0027",
"i+	c #562A29",
"j+	c #4F6A2F",
"k+	c #4A7A31",
"l+	c #497530",
"m+	c #416F2D",
"n+	c #306528",
"o+	c #628839",
"p+	c #9CBE52",
"q+	c #ACCE5A",
"r+	c #9CC153",
"s+	c #73A442",
"t+	c #9AC052",
"u+	c #61933B",
"v+	c #32782D",
"w+	c #39792F",
"x+	c #37712F",
"y+	c #285C2E",
"z+	c #1C4F2E",
"A+	c #15512D",
"B+	c #12402A",
"C+	c #140023",
"D+	c #210021",
"E+	c #310025",
"F+	c #371927",
"G+	c #361C27",
"H+	c #311B27",
"I+	c #271627",
"J+	c #211427",
"K+	c #301A27",
"L+	c #351C27",
"M+	c #3E1F28",
"N+	c #412128",
"O+	c #3F2128",
"P+	c #491E29",
"Q+	c #5B192A",
"R+	c #612A2B",
"S+	c #5D422D",
"T+	c #5B4A2D",
"U+	c #5A472D",
"V+	c #573E2B",
"W+	c #512627",
"X+	c #73743A",
"Y+	c #A3BE54",
"Z+	c #A8CD59",
"`+	c #8AB64C",
" @	c #9ABE52",
".@	c #63943C",
"+@	c #538C36",
"@@	c #7EAE46",
"#@	c #5A9238",
"$@	c #3A792F",
"%@	c #2E682F",
"&@	c #265D2E",
"*@	c #23582E",
"=@	c #21572E",
"-@	c #1E582E",
";@	c #224C2C",
">@	c #2B2327",
",@	c #300025",
"'@	c #341026",
")@	c #361D27",
"!@	c #321B27",
"~@	c #281727",
"{@	c #221427",
"]@	c #351D27",
"^@	c #341C27",
"/@	c #301B27",
"(@	c #2D1A26",
"_@	c #2A1926",
":@	c #3A1E28",
"<@	c #52282A",
"[@	c #5D282B",
"}@	c #611F2C",
"|@	c #631B2C",
"1@	c #631C2C",
"2@	c #5F002A",
"3@	c #560026",
"4@	c #6C5F36",
"5@	c #93AF4D",
"6@	c #96BF51",
"7@	c #78AB44",
"8@	c #7CAD46",
"9@	c #9FC554",
"0@	c #ABCD5A",
"a@	c #69993E",
"b@	c #4B8734",
"c@	c #61953C",
"d@	c #61943C",
"e@	c #4C8434",
"f@	c #38702F",
"g@	c #2B552D",
"h@	c #24452C",
"i@	c #274C2C",
"j@	c #284F2D",
"k@	c #28512D",
"l@	c #2A472C",
"m@	c #302B28",
"n@	c #321227",
"o@	c #311827",
"p@	c #2F1A27",
"q@	c #331C27",
"r@	c #492229",
"s@	c #5D272B",
"t@	c #65292D",
"u@	c #5C1D2B",
"v@	c #460027",
"w@	c #464A2C",
"x@	c #5D8738",
"y@	c #699F3F",
"z@	c #6FA641",
"A@	c #85B54A",
"B@	c #80AF47",
"C@	c #80B047",
"D@	c #8FB94D",
"E@	c #A4C756",
"F@	c #82B148",
"G@	c #62973C",
"H@	c #487835",
"I@	c #346430",
"J@	c #2F6430",
"K@	c #2D582D",
"L@	c #303B2A",
"M@	c #322628",
"N@	c #312C28",
"O@	c #322F29",
"P@	c #323029",
"Q@	c #2A1D27",
"R@	c #271427",
"S@	c #261527",
"T@	c #241527",
"U@	c #2C1A26",
"V@	c #53272A",
"W@	c #5C2A2B",
"X@	c #53232A",
"Y@	c #3A0A27",
"Z@	c #283527",
"`@	c #295F29",
" #	c #407930",
".#	c #5E8E3A",
"+#	c #7AA044",
"@#	c #94B04E",
"##	c #A3BF55",
"$#	c #ABCB59",
"%#	c #75A743",
"&#	c #70A341",
"*#	c #79A844",
"=#	c #5E963B",
"-#	c #5D933B",
";#	c #76A343",
">#	c #99BF52",
",#	c #7EAB47",
"'#	c #5D8E3B",
")#	c #326230",
"!#	c #00452B",
"~#	c #18512D",
"{#	c #264B2D",
"]#	c #2F2828",
"^#	c #340026",
"/#	c #350D26",
"(#	c #361226",
"_#	c #221527",
":#	c #261627",
"<#	c #231527",
"[#	c #291727",
"}#	c #3D1F28",
"|#	c #412028",
"1#	c #422128",
"2#	c #3E1E28",
"3#	c #361927",
"4#	c #303527",
"5#	c #354329",
"6#	c #3F4E2C",
"7#	c #515530",
"8#	c #675733",
"9#	c #868942",
"0#	c #A7C557",
"a#	c #A1C956",
"b#	c #689D3F",
"c#	c #8FB94E",
"d#	c #AACD59",
"e#	c #A1C455",
"f#	c #37782F",
"g#	c #30672F",
"h#	c #537E38",
"i#	c #7DAB46",
"j#	c #7EAC47",
"k#	c #57843A",
"l#	c #326431",
"m#	c #23592E",
"n#	c #1C552E",
"o#	c #21592F",
"p#	c #254F2D",
"q#	c #262B28",
"r#	c #2B0326",
"s#	c #331427",
"t#	c #361A27",
"u#	c #321827",
"v#	c #271527",
"w#	c #2E1A27",
"x#	c #2C1927",
"y#	c #341827",
"z#	c #330226",
"A#	c #2F0026",
"B#	c #270024",
"C#	c #330023",
"D#	c #490021",
"E#	c #6F5634",
"F#	c #97A94D",
"G#	c #94B24E",
"H#	c #618538",
"I#	c #42752E",
"J#	c #7BAB45",
"K#	c #7DAD46",
"L#	c #6AA13F",
"M#	c #649C3D",
"N#	c #76A643",
"O#	c #93B84F",
"P#	c #689A3D",
"Q#	c #3C7A30",
"R#	c #15542C",
"S#	c #306030",
"T#	c #5E903C",
"U#	c #5F903B",
"V#	c #365E30",
"W#	c #0E3A29",
"X#	c #23492C",
"Y#	c #29502D",
"Z#	c #26502D",
"`#	c #23462C",
" $	c #212728",
".$	c #260A27",
"+$	c #2F1727",
"@$	c #2E1927",
"#$	c #281627",
"$$	c #331B27",
"%$	c #351B27",
"&$	c #341627",
"*$	c #311026",
"=$	c #2C0926",
"-$	c #3D0527",
";$	c #570629",
">$	c #67392E",
",$	c #726137",
"'$	c #706437",
")$	c #61492F",
"!$	c #52542C",
"~$	c #437B30",
"{$	c #6AA040",
"]$	c #B2D45C",
"^$	c #B1D25C",
"/$	c #A6CA57",
"($	c #7FAF47",
"_$	c #7BAD45",
":$	c #6FA340",
"<$	c #579038",
"[$	c #518935",
"}$	c #60923A",
"|$	c #6A9C3E",
"1$	c #72A642",
"2$	c #669A3E",
"3$	c #3A6B32",
"4$	c #19542D",
"5$	c #356A32",
"6$	c #3B6531",
"7$	c #323F2A",
"8$	c #2E1F27",
"9$	c #312B28",
"0$	c #2F2F29",
"a$	c #262D29",
"b$	c #212828",
"c$	c #211A27",
"d$	c #231227",
"e$	c #311A27",
"f$	c #3E2028",
"g$	c #532A2B",
"h$	c #5B212A",
"i$	c #590028",
"j$	c #5B0028",
"k$	c #62002A",
"l$	c #5C372C",
"m$	c #46602B",
"n$	c #5E8839",
"o$	c #8CAF4C",
"p$	c #9DBE54",
"q$	c #9CBD53",
"r$	c #8FB44E",
"s$	c #719F42",
"t$	c #61963D",
"u$	c #699B3F",
"v$	c #64973D",
"w$	c #4C8734",
"x$	c #377A2E",
"y$	c #29722C",
"z$	c #437D32",
"A$	c #69973D",
"B$	c #68913D",
"C$	c #416532",
"D$	c #18432B",
"E$	c #16442B",
"F$	c #213B2A",
"G$	c #312227",
"H$	c #370826",
"I$	c #361026",
"J$	c #2B0926",
"K$	c #270B27",
"L$	c #281427",
"M$	c #271727",
"N$	c #231427",
"O$	c #2A1827",
"P$	c #321A26",
"Q$	c #361C26",
"R$	c #3B1F28",
"S$	c #481F29",
"T$	c #5A1E2A",
"U$	c #621F2B",
"V$	c #63232C",
"W$	c #622E2C",
"X$	c #5F3C2C",
"Y$	c #5A5630",
"Z$	c #557337",
"`$	c #537E3B",
" %	c #557D3A",
".%	c #4F7838",
"+%	c #3E7034",
"@%	c #366C32",
"#%	c #396C33",
"$%	c #3D7433",
"%%	c #428332",
"&%	c #3D8031",
"*%	c #296A2F",
"=%	c #2D5B2E",
"-%	c #45582F",
";%	c #474F2E",
">%	c #38392A",
",%	c #2E2928",
"'%	c #2D2928",
")%	c #2F2528",
"!%	c #341D27",
"~%	c #361827",
"{%	c #341927",
"]%	c #251527",
"^%	c #2A1727",
"/%	c #261728",
"(%	c #2D1C2B",
"_%	c #311D2B",
":%	c #341C28",
"<%	c #351C26",
"[%	c #2B1A26",
"}%	c #5B2A2B",
"|%	c #5A2B2B",
"1%	c #5A252B",
"2%	c #5D172B",
"3%	c #53212A",
"4%	c #333629",
"5%	c #143D29",
"6%	c #193B29",
"7%	c #213D29",
"8%	c #2B432B",
"9%	c #2E432C",
"0%	c #2D402B",
"a%	c #38532D",
"b%	c #4A7130",
"c%	c #497331",
"d%	c #31592E",
"e%	c #213A2A",
"f%	c #2B0024",
"g%	c #330026",
"h%	c #361527",
"i%	c #341427",
"j%	c #2F1927",
"k%	c #281626",
"l%	c #21172B",
"m%	c #1B1E34",
"n%	c #231F34",
"o%	c #311D2A",
"p%	c #361B24",
"q%	c #402028",
"r%	c #3F1E28",
"s%	c #3F1828",
"t%	c #461E29",
"u%	c #532B2B",
"v%	c #57302B",
"w%	c #552E2B",
"x%	c #542F2B",
"y%	c #55312C",
"z%	c #57322C",
"A%	c #58312C",
"B%	c #5B392D",
"C%	c #5F472E",
"D%	c #57462D",
"E%	c #3E362A",
"F%	c #292328",
"G%	c #240A26",
"H%	c #270026",
"I%	c #321527",
"J%	c #361B27",
"K%	c #331927",
"L%	c #2B1727",
"M%	c #2B1827",
"N%	c #2C1827",
"O%	c #331B26",
"P%	c #291625",
"Q%	c #20182B",
"R%	c #1C1E34",
"S%	c #211F35",
"T%	c #2C1E2E",
"U%	c #2F1B27",
"V%	c #2A1A26",
"W%	c #3B1D27",
"X%	c #55222A",
"Y%	c #60252B",
"Z%	c #63272C",
"`%	c #64282C",
" &	c #62272C",
".&	c #5E252B",
"+&	c #5D1A2B",
"@&	c #54142A",
"#&	c #3D1027",
"$&	c #2A1026",
"%&	c #231327",
"&&	c #241627",
"*&	c #301C2A",
"=&	c #211F34",
"-&	c #231F33",
";&	c #371C24",
">&	c #3B1C27",
",&	c #4B2129",
"'&	c #5E292B",
")&	c #662C2D",
"!&	c #5D292B",
"~&	c #4A2129",
"{&	c #3F1C28",
"]&	c #411A28",
"^&	c #3C1728",
"/&	c #2E1327",
"(&	c #251627",
"_&	c #381B23",
":&	c #1B2037",
"<&	c #192037",
"[&	c #2B1E2F",
"}&	c #311C2A",
"|&	c #311B28",
"1&	c #321C27",
"2&	c #3B1E28",
"3&	c #2B1926",
"4&	c #2E1B26",
"5&	c #1D2037",
"6&	c #211E33",
"7&	c #26192A",
"8&	c #11213B",
"9&	c #161E36",
"0&	c #1F172C",
"a&	c #241425",
"b&	c #341C26",
"c&	c #371D27",
"d&	c #251628",
"e&	c #2C1B2B",
"f&	c #241426",
"g&	c #22172B",
"h&	c #1E1E33",
"i&	c #241F33",
"j&	c #321D2A",
"k&	c #251425",
"l&	c #21182B",
"m&	c #141E37",
"n&	c #2B1E2E",
"o&	c #321D29",
"p&	c #341D28",
"q&	c #1C2036",
"r&	c #251F33",
"s&	c #0E213A",
"t&	c #1D2036",
"u&	c #301D2C",
"v&	c #331A25",
"                                                                                                                                ",
"                                                                                                                                ",
"                                                                                                                                ",
"                                                                                                                                ",
"                                                                                                                                ",
"                                                                                                                                ",
"                                                                                                                                ",
"                                                                                                                                ",
"                                                                                                                                ",
"                                                                                                                                ",
"                                                                                                                                ",
"                                                                                                                                ",
"                                                    . .         + + + .                                                         ",
"                                                    @ @         + + # $                                                         ",
"                                                % & * = - ; > , . . ' ) ! ~                                                     ",
"                                                { ] * * ^ ^ / ' . . , / ] (                                                     ",
"                                            ' _ ) / : : / ) $ # + + # : * < [ } | , . .                                         ",
"                                            _ 1 , ' + + ' ' # + + + + 1 2 * ^ 3 / ' 1 $                                         ",
"                                        4 ! 5 , 6 . + + . . + + + + + + 1 : / ) $ 1 , ) ! ~                                     ",
"                                        ( ] / , . + + + + + + + + + + + + # ' ' # # ' / ] (                                     ",
"                        . . , 7 8 9 9 8 0 * : # + + + + + + + + + + + + + + . . + + # : * < [ } | , . .                         ",
"                        : ' , a b ( ( c d 2 1 + + + + + + + + + + + + + + + + + + + + 1 2 * ^ 3 / ' 1 $                         ",
"                2 | [ 8 = 2 ' $ / e e a f 1 + + + + + + + + + + + + + + + + + + + + + + 1 : / ) $ 1 ' / g h                     ",
"                + a ] i j = : 1 , , , ' # + + + + + + + + + + + + + + + + + + + + + + + + # ' ' # . , k ! h                     ",
"            ~ l / 1 d j & m ) , 6 . . . + + + + + + + + + + + + + + + + + + + + + + + + + + . . + . , k n o p ! 5 q             ",
"            r ] ) q s * m i ) ' . + + + + + + + + + + + + + + + + + + + + + + + + + + + + + + + + . ' a t 8 r c a ,             ",
"            > / $ . 6 : ) ) $ # + + + + + + + + + + + + + + + + + + + + + + + + + + + + + + + + + + # @ a k | / @ # + +         ",
"            , ' # + + # ' ' # + + + + + + + + + + + + + + + + + + + + + + + + + + + + + + + + + + + + # ' , , ' # + + +         ",
"    u ( > , 6 . + + + + . . + + + + + + + + + + + + + + + + + + + + + + + + + + + + + + + + + + + + + + . . . . + + + + + + + + ",
"    v c a ' . + + + + + + + + + + + + + + + + + + + + + + + + + + + + + + + + + + + + + + + + + + + + + + + + + + + + + + + . . ",
"w x y z A # + + + + + + + + + + + + + + + + + + + + + + + + + + + + + + + + + + + + + + + + + + + + + + + + + + + + + + + # ' , ",
"B C D E F # + + + + + + + + + + + + + + + + + + + + + + + + + + + + + + + + + + + + + + + + + + + + + + + + + + + + . . . @ G 5 ",
"H I J F F ' # + + + + + + + + + + + + + + + + + + + + + + + + + + + + + + + + + + + + + + + + + + + + + + + + + + # ' , , a K & ",
"L M F f a a @ . . . + + + + + + + + + + + + + + + + + + + + + + + + + + + + + + + + + + + + + + + + + + . . + + # @ a d F ) N O ",
"P P Q R c ] / , , ' # + + + + + + + + + + + + + + + + + + + + + + + + + + + + + + + + + + + + + + + + # ' ' # # ' a ] S T U V W ",
"X Y Z `  ...> 6 = a f 1 + + + + + + + + + + + + + + + + + + + + + + + + + + + + + + + + + + + + . 1 6 f a a f , q > ..+.@.#.$.%.",
"&.*.=.-.;.>.Z _ ,.c '.).1 + + + + + + + + + + + + + + + + + + + + + + + + + + + + + + + + + + # ' q 2 d c c '.!.~.Y {.].^./.(._.",
":.<.[.}.|.1.2.3.4.5.6._ . ' # + + + + + + + + + + + + + + + + + + + + + + + + + + + + + . . . @ G 7.d 8.9.9.6.0.a.b.c.d.e.f.g.h.",
"i.j.k.l.m.n.o.p.q.r...s.@ !.6 + + + + + + + + + + + + + + + + + + + + + + + + + + + + # ' , , a K t.u.N v.w.; x.y.z.A.B.C.D.E.F.",
"G.H.I.J.K.L.M.N.O.P.Q.R.S.T.$ . 1 . + + + + + + + + + + + + + + + + + + + + + + + + # @ a * ' 7 U.V.W.X.Y.Z.`. +.+++@+#+$+%+&+*+",
"=+-+;+>+,+'+)+!+~+{+]+^+/+(+Z q q ' # + + + + + + + + + + + + + + + + + + + + + + . ' a ] _++ z.:+<+[+}+|+1+2+3+4+5+6+7+8+9+0+a+",
"b+c+d+e+f+g+h+i+j+k+l+m+n+o+p+q+* / @ # + + . . + + + + + + + + + + + + + + . . . 6 q r+s+9.t+8.u+v+w+x+y+z+A+B+C+D+E+F+G+H+I+J+",
"K+L+M+N+O+P+Q+R+S+T+U+V+W+X+Y+Z+`+3 / ' # # ' ' # + + + + + + + + + + + + # ' , , q 2  @.@+@8 @@#@$@%@&@*@=@-@;@>@,@'@G+)@!@~@{@",
"]@^@/@(@_@:@<@[@}@|@1@2@3@4@5@6@7@8@9@q+' @ a a f 1 + + + + + + . . . . . @ G 5 5 '.0@b.a@b@c@d@e@f@g@h@i@j@k@l@m@n@o@H+!@p@I+{@",
"^@^@q@!@H+^@:@r@s@t@t@u@v@w@x@y@z@A@p.L q+/ ] c '.).1 + + + + # ' , , , , a K B@C@D@A E@F@G@H@I@J@K@L@M@N@O@P@m@Q@R@S@I+~@I+T@{@",
"^@^@^@^@^@!@U@:@V@W@W@X@Y@Z@`@ #.#+#@###$#5 %#&#6._ A # + + 1 f a k 7 '.F ) *#=#-#;#>#r+,#'#)#!#~#{#]#^#/#(#(#n@R@_#:#:#<#T@I+[#",
"^@^@^@^@^@q@!@L+}#|#1#2#3#E.4#5#6#7#8#9#0#a#b#^+%#D@= ' # 1 2 E@t 8 ! c#d#e#q.f#g#h#i#j#k#l#m#n#o#p#q#r#s#t#t#u#v#:#p@p@:#:#p@q@",
"^@^@^@^@^@^@^@q@H+w#x#w#8+y#z#A#B#C#D#E#F#G#H#I#w.J#5 ~.0@. _ 0 K#L#M#N#8.O#P#Q#R#S#T#U#V#W#X#Y#Z#`# $.$+$!@!@@$:##$q@q@I+:#p@$$",
"^@^@^@^@^@^@^@^@^@H+~@~@H+%$&$*$=$-$;$>$,$'$)$!$~${$9@]$^$/$D@($_$:$<$[$}$|$1$2$3$4$5$6$7$8$9$0$a$b$c$d$v#~@~@I+<#~@q@q@~@<#I+~@",
"^@^@^@^@^@^@^@^@!@@$T@:#e$L+^@q@/@f$g$h$i$j$k$l$m$n$o$p$q$r$s$t$u$v$w$x$y$z$A$B$C$D$E$F$G$H$I$&+J$K$L$M$T@{@{@N$N$I+p@K+~@{@{@{@",
"        ^@^@L+!@O$T@{@#$P$Q$L+^@q@]@R$S$T$U$V$W$X$Y$Z$`$ %.%+%@%#%$%%%&%*%=%-%;%>%,%'%)%!%~%3#{%u#o@$$K+I+{@<#T@T@]%I+~@        ",
"        ^@^@L+H+^%]%N$/%(%_%:%<%L+!@[%:@V@}%|%1%2%3%4%5%6%7%8%9%0%a%b%c%d%e%H.f%g%h%(#i%9+H+H+!@L+]@^@p@I+<#T@T@T@T@N${@        ",
"                !@j%k%l%m%n%o%p%<%q@!@L+}#|#q%r%s%t%u%v%w%x%y%z%A%B%C%D%E%F%G%H%I%J%t#K%L%:#:#M%^@^@N%:#T@T@T@T@                ",
"                )@O%P%Q%R%S%T%o%^@<%L+q@/@U%U%w#V%W%X%Y%Z%`%`% &.&>++&@&#&$&%&&&@$!@!@p@:#J+J+:#p@p@:#{@<#T@T@T@                ",
"                        *&T%=&-&o%;&Q$L+^@q@q@q@H+^@>&,&'&)&)&!&~&{&]&^&/&d${@<#(&I+~@I+T@<#<#]%I+I+T@<#                        ",
"                        _&o%:&<&[&}&|&e$e$H+H+!@^@1&U@:@V@W@W@V@2&3&4&w#[#I+~@~@#$:#<#N$T@T@T@T@N${@T@T@                        ",
"                                5&6&7&k%I+:#:#M%$$]@1&L+}#|#|#M+)@1&q@q@!@!@!@!@$$p@I+{@T@T@T@T@                                ",
"                                8&9&0&a&I+:#{@:#@$$$^@b&/@p@p@/@H+H+H+H+!@!@!@!@$$p@I+N$T@T@T@T@                                ",
"                                        !@p@I+<#(&M%O%Q$q@1&q@/@O$I+I+~@~@~@~@~@~@I+]%T@                                        ",
"                                        c&!@[#{@J+d&e&_%:%<%L+H+I+J+{@N$N$N$N$N${@N$T@T@                                        ",
"                                                f&g&h&i&j&;&Q$H+I+{@<#T@T@T@T@<#                                                ",
"                                                k&l&m&:&n&o&p&!@~@N$T@T@T@T@T@T@                                                ",
"                                                        q&r&o%P$#$N$T@T@                                                        ",
"                                                        s&t&u&v&k%N$T@T@                                                        "};
