/* XPM */
static char * s_1_xpm[] = {
"32 41 43 1",
" 	c None",
".	c #DA863E",
"+	c #D6763D",
"@	c #CF573C",
"#	c #D2663C",
"$	c #D46E3D",
"%	c #C14A38",
"&	c #A53030",
"*	c #D77A3D",
"=	c #BA4336",
"-	c #B33D34",
";	c #884B2B",
">	c #743B2B",
",	c #7A402B",
"'	c #70382B",
")	c #602C2C",
"!	c #6D362B",
"~	c #B84C36",
"{	c #7A382B",
"]	c #5E312A",
"^	c #6A332B",
"/	c #752438",
"(	c #341C27",
"_	c #51262A",
":	c #7B2731",
"<	c #832F33",
"[	c #BE4737",
"}	c #4A2429",
"|	c #8F2E30",
"1	c #151D28",
"2	c #5B2E2B",
"3	c #4D2B32",
"4	c #10141F",
"5	c #471F27",
"6	c #85432F",
"7	c #A45D35",
"8	c #DB8C56",
"9	c #D1623C",
"0	c #E8C170",
"a	c #976443",
"b	c #DB8A4E",
"c	c #7C6A47",
"d	c #A08755",
"                                ",
"                                ",
"                                ",
"                                ",
"                                ",
"                                ",
"                                ",
"                                ",
"                                ",
"                                ",
"                                ",
"                                ",
"                                ",
"                                ",
"                                ",
"   ...                          ",
"   ..+@                         ",
"   @.@#@                        ",
"   @@.@@##$@                    ",
"   %&@@@@.@*.+$@                ",
"   &=@@@@@....@$$@              ",
"    -&@@@@@@@...@#@             ",
"    &&@@@@@@@@@@.@+.            ",
"    &&@@@@@@@@@@.....       ;;; ",
"    &&@@@@@@@@@@@...+@   ;;>,;; ",
"    &&@@@@@@@@@@@@..@#@  >;');; ",
"    &&@@@@@@@@@@@@;;.@@;;>);)!; ",
"    &&&@@&&@@@@)@;;@@@~{;]))^)  ",
"    &&&&&&/&@@@@))@@;@&;(;()_   ",
"     &&&&:/<[@@@));()()(((((}   ",
"     &|&11(1=&@@@((((()(2((((   ",
"      13114111@@@&((&@..&5((    ",
"      11114111@@&/&@@...46      ",
"      11111111&@1//@@4...7@     ",
"      111111 1&&11/1@@...@8     ",
"      11111111 &11(119@..0a     ",
"      111111111311411@b004c     ",
"        1111111111111 00dc4     ",
"          11111111111           ",
"            111111111           ",
"                                "};
