/* XPM */
static char *_d84b80b61f34ba5eb7d981d76a4d073WdgFwrLMbKU37qZl[] = {
/* columns rows colors chars-per-pixel */
"32 41 77 1 ",
"  c none",
". c #DA863E",
"X c #D6763D",
"o c #CF573C",
"O c #D2663C",
"+ c #D46E3D",
"@ c #C14A38",
"# c #D77A3D",
"$ c #A53030",
"% c #BA4336",
"& c #B33D34",
"* c #884B2B",
"= c #743B2B",
"- c #7A402B",
"; c #70382B",
": c #6D362B",
"> c #B84C36",
", c #7A382B",
"< c #5E312A",
"1 c #6A332B",
"2 c #602C2C",
"3 c #51262A",
"4 c #7B2731",
"5 c #832F33",
"6 c #BE4737",
"7 c #4A2429",
"8 c #8F2E30",
"9 c #5B2E2B",
"0 c #341C27",
"q c #471F27",
"w c #85432F",
"e c #A45D35",
"r c #DB8C56",
"t c #151D28",
"y c #D1623C",
"u c #976443",
"i c #DB8A4E",
"p c #7C6A47",
"a c #E8C170",
"s c #A08755",
"d c #10141F",
"f c #151D28",
"g c #151D28",
"h c #151D28",
"j c #151D28",
"k c #151D28",
"l c #151D28",
"z c #151D28",
"x c #151D28",
"c c #151D28",
"v c #151D28",
"b c #151D28",
"n c #151D28",
"m c #151D28",
"M c #151D28",
"N c #151D28",
"B c #151D28",
"V c #151D28",
"C c #151D28",
"Z c #151D28",
"A c #151D28",
"S c None",
"D c #151D28",
"F c #151D28",
"G c #151D28",
"H c #DA863E",
"J c #CF573C",
"K c #A53030",
"L c #884B2B",
"P c #602C2C",
"I c #752438",
"U c #341C27",
"Y c #4D2B32",
"T c #10141F",
"R c #151D28",
"E c #E8C170",
"W c white",
/* pixels */
"                                ",
"                                ",
"                                ",
"                                ",
"                                ",
"                                ",
"                                ",
"                                ",
"                                ",
"                                ",
"                                ",
"                                ",
"                                ",
"                                ",
"                                ",
"   H..                          ",
"   HHXo                         ",
"   JHJOo                        ",
"   JJHJoOO+o                    ",
"   @KJJJJHJ#.X+o                ",
"   $%JJJJJHHHHJ++o              ",
"    &KJJJJJJJHHHJOo             ",
"    $KJJJJJJJJJJHJX.            ",
"    $KJJJJJJJJJJHHH..       *** ",
"    $KJJJJJJJJJJJHHHXo   **=-LL ",
"    $KJJJJJJJJJJJJHHJOo  =L;PL* ",
"    $KJJJJJJJJJJJJLLHJo**=PLP:* ",
"    $KKJJKKJJJJPJLLJJJ>,L<PP12  ",
"    $$KKKKIKJJJJPPJJLJKLULUP3   ",
"     $KK$4I56JJJPPLUPUPUUUUU7   ",
"     $8KfgUh%KJJJUUUUUPU9UU00   ",
"      hYjkTlzhJJJKUUKJHHKq00    ",
"      xRcvTbnlJJKIKJJHHHTw      ",
"      xRmMNBVbKJzIIJJTHHHeo     ",
"      hCZAVBSBKKnlIhJJHHHJr     ",
"      thzlnbVBSKVAUChyJHHEu     ",
"      ttthzlnbVYNMTDxoiEETp     ",
"        ttthzlnRFvcDx aaspd     ",
"          ttthzlGkjCh           ",
"            ttthfgfht           ",
"                                "
};
