/* XPM */
static char *_f5575bd12314ac2f686eb583f60b1a6V3k6BBJtQRHBOiON[] = {
/* columns rows colors chars-per-pixel */
"32 41 86 1 ",
"  c black",
". c #884B2B",
"X c #7A402B",
"o c #7E432B",
"O c #743B2B",
"+ c #69372A",
"@ c #602C2C",
"# c #55282A",
"$ c #6A332B",
"% c #51262A",
"& c #5F2F2A",
"* c #4E252A",
"= c #4A2429",
"- c #DA863E",
"; c #422128",
": c #A75836",
"> c #D6763D",
", c #CF573C",
"< c #341C27",
"1 c #D2663C",
"2 c #813931",
"3 c #D1623C",
"4 c #D77C3D",
"5 c #986336",
"6 c #C44D39",
"7 c #BA4336",
"8 c #D77A3D",
"9 c #A53030",
"0 c #AF3933",
"q c #DF9D5E",
"w c #CB6444",
"e c #D77A4D",
"r c #DB8C56",
"t c #E8C170",
"y c #D1905A",
"u c #CD7D4A",
"i c #7B2731",
"p c #832F33",
"a c #C64F39",
"s c #A64235",
"d c #8F2E30",
"f c #852835",
"g c #752438",
"h c #642233",
"j c #3D1C2A",
"k c #151D28",
"l c #151D28",
"z c #151D28",
"x c #151D28",
"c c #151D28",
"v c #151D28",
"b c #151D28",
"n c #151D28",
"m c #151D28",
"M c #151D28",
"N c #151D28",
"B c #151D28",
"V c #151D28",
"C c #151D28",
"Z c #151D28",
"A c #151D28",
"S c #151D28",
"D c #151D28",
"F c #151D28",
"G c #151D28",
"H c #151D28",
"J c None",
"K c #151D28",
"L c #151D28",
"P c #151D28",
"I c #151D28",
"U c #151D28",
"Y c #151D28",
"T c #151D28",
"R c #602C2C",
"E c #884B2B",
"W c #341C27",
"Q c #DA863E",
"! c #CF573C",
"~ c #A53030",
"^ c #151D28",
"/ c #E8C170",
"( c #752438",
") c #4D2B32",
"_ c #10141F",
"` c white",
/* pixels */
"                                ",
"                                ",
"                                ",
"                                ",
"                                ",
"                    .XR         ",
"                   ..EE         ",
"                 ..XEEo         ",
"                 OEORRO         ",
"                .+RER@@         ",
"                OEWRR#@         ",
"               @$REWWR%         ",
"               @RR&ERWR         ",
"               @@RWRWWR         ",
"                %REWR*=         ",
"   Q--          ;WWRR:          ",
"   QQ>,         <WWW!Q   -      ",
"   !Q!1,        <2!!!QQQ -      ",
"   !!Q!3>---     ,!~!!QQQ45     ",
"   6!!!!QQQ----- ,,!!!!^!Q^     ",
"   7~!!!!QQQQQQ81,!!!!!!!!/     ",
"   90~!!!!!QQQQQ!!!!!!!!!!q     ",
"    9~!!!!!!!!!!!!!!!!~wert     ",
"    9~!!!!!!!!!!!!!!!!/y        ",
"    9~!!!!!!!!!!!!!!!Q/         ",
"    9~!!!!!!!!!!!!!!Q//         ",
"    9~!!!!!!!!!!!!!Q//t         ",
"    9~~!!~~!!!!!!!!Q/tt         ",
"    99~~~~(~!!!!!!Q~ut          ",
"     9~~9i(pa!!!!!~s9           ",
"     9d~lzWx,!!!!~(f            ",
"      x)cv_bnx!!~((g            ",
"      m^MN_BVb~~((hg            ",
"      m^CZASDB~~nWjk            ",
"      xFGHSJJSD~~_Kk            ",
"      kKFLBDSJJS)_Fx            ",
"      kkxnbVBDSA^CPm            ",
"       kkkxnbVBI^MUm            ",
"         kkkxnbYvcTx            ",
"           kkkxlzlxk            ",
"                                "
};
