/* XPM */
static char * s_2_xpm[] = {
"32 41 48 1",
" 	c None",
".	c #884B2B",
"+	c #7A402B",
"@	c #602C2C",
"#	c #7E432B",
"$	c #743B2B",
"%	c #69372A",
"&	c #341C27",
"*	c #55282A",
"=	c #6A332B",
"-	c #51262A",
";	c #5F2F2A",
">	c #4E252A",
",	c #4A2429",
"'	c #DA863E",
")	c #422128",
"!	c #A75836",
"~	c #D6763D",
"{	c #CF573C",
"]	c #D2663C",
"^	c #813931",
"/	c #D1623C",
"(	c #A53030",
"_	c #D77C3D",
":	c #986336",
"<	c #C44D39",
"[	c #151D28",
"}	c #BA4336",
"|	c #D77A3D",
"1	c #E8C170",
"2	c #AF3933",
"3	c #DF9D5E",
"4	c #CB6444",
"5	c #D77A4D",
"6	c #DB8C56",
"7	c #D1905A",
"8	c #752438",
"9	c #CD7D4A",
"0	c #7B2731",
"a	c #832F33",
"b	c #C64F39",
"c	c #A64235",
"d	c #8F2E30",
"e	c #852835",
"f	c #4D2B32",
"g	c #10141F",
"h	c #642233",
"i	c #3D1C2A",
"                                ",
"                                ",
"                                ",
"                                ",
"                                ",
"                    .+@         ",
"                   ....         ",
"                 ..+..#         ",
"                 $.$@@$         ",
"                .%@.@@@         ",
"                $.&@@*@         ",
"               @=@.&&@-         ",
"               @@@;.@&@         ",
"               @@@&@&&@         ",
"                -@.&@>,         ",
"   '''          )&&@@!          ",
"   ''~{         &&&&{'   '      ",
"   {'{]{        &^{{{''' '      ",
"   {{'{/~'''     {{({{'''_:     ",
"   <{{{{'''''''' {{{{{{[{'[     ",
"   }({{{{''''''|]{{{{{{{{{1     ",
"   (2({{{{{'''''{{{{{{{{{{3     ",
"    (({{{{{{{{{{{{{{{{(4561     ",
"    (({{{{{{{{{{{{{{{{17        ",
"    (({{{{{{{{{{{{{{{'1         ",
"    (({{{{{{{{{{{{{{'11         ",
"    (({{{{{{{{{{{{{'111         ",
"    ((({{(({{{{{{{{'111         ",
"    ((((((8({{{{{{'(91          ",
"     ((((08ab{{{{{(c(           ",
"     (d([[&[{{{{{(8e            ",
"      [f[[g[[[{{(888            ",
"      [[[[g[[[((88h8            ",
"      [[[[[[[[(([&i[            ",
"      [[[[[  [[((g[[            ",
"      [[[[[[[  [fg[[            ",
"      [[[[[[[[[[[[[[            ",
"       [[[[[[[[[[[[[            ",
"         [[[[[[[[[[[            ",
"           [[[[[[[[[            ",
"                                "};
