/* XPM */
static char *_75bad4724be4860d8a63143047f13c8Oz22TdaxZep3WK0E[] = {
/* columns rows colors chars-per-pixel */
"32 41 103 2 ",
"   c black",
".  c #341C27",
"X  c #5E312A",
"o  c #743B2B",
"O  c #7A402B",
"+  c #6D362B",
"@  c #884B2B",
"#  c #4A2429",
"$  c #55282A",
"%  c #602C2C",
"&  c #69372A",
"*  c #783E2B",
"=  c #80442B",
"-  c #5E3329",
";  c #5F2F2A",
":  c #51262A",
">  c #562B29",
",  c #502929",
"<  c #DA863E",
"1  c #C45938",
"2  c #D6763D",
"3  c #CF573C",
"4  c #6B302D",
"5  c #5B2B2C",
"6  c #3F2028",
"7  c #D2663C",
"8  c #422128",
"9  c #76352F",
"0  c #913A32",
"q  c #9D3E33",
"w  c #974134",
"e  c #BA4336",
"r  c #D46E3D",
"t  c #A53030",
"y  c #D77C3D",
"u  c #CB603A",
"i  c #B33D34",
"p  c #D87D49",
"a  c #E3AD5F",
"s  c #DF9D5E",
"d  c #DB8C56",
"f  c #B9694C",
"g  c #7B2731",
"h  c #892F33",
"j  c #812736",
"k  c #752438",
"l  c #8F2E30",
"z  c #A43433",
"x  c #952C32",
"c  c #5B2031",
"v  c #5F2132",
"b  c #54202F",
"n  c #151D28",
"m  c #151D28",
"M  c #151D28",
"N  c #151D28",
"B  c #151D28",
"V  c #151D28",
"C  c #151D28",
"Z  c #151D28",
"A  c #151D28",
"S  c #151D28",
"D  c #151D28",
"F  c #151D28",
"G  c #151D28",
"H  c #151D28",
"J  c #151D28",
"K  c #151D28",
"L  c #151D28",
"P  c #151D28",
"I  c #151D28",
"U  c #151D28",
"Y  c #151D28",
"T  c #151D28",
"R  c #151D28",
"E  c #151D28",
"W  c #151D28",
"Q  c #151D28",
"!  c None",
"~  c #151D28",
"^  c #151D28",
"/  c #151D28",
"(  c #151D28",
")  c #151D28",
"_  c #151D28",
"`  c #151D28",
"'  c #151D28",
"]  c #151D28",
"[  c #151D28",
"{  c #151D28",
"}  c #151D28",
"|  c #884B2B",
" . c #341C27",
".. c #602C2C",
"X. c #DA863E",
"o. c #A53030",
"O. c #CF573C",
"+. c #151D28",
"@. c #E8C170",
"#. c #10141F",
"$. c #752438",
"%. c #4D2B32",
"&. c white",
/* pixels */
"                                                                ",
"                                                                ",
"                                                                ",
"                                                                ",
"                                                                ",
"                                                                ",
"                                                                ",
"                                                                ",
"                                                                ",
"                  . X | o                             o | O     ",
"                  .  ...+ @ @ @                 @ @ @ O ..|     ",
"                  . # ..$ O | @ % % %     @ @ @ @ | @ & | &     ",
"                    #  ...* | @ o ..%     @ | @ @ | = |  .-     ",
"                    . $ ..| O O | o o     o o | & & | ..; .     ",
"                      : ....> ; ..| O @ % % .... ., ....%       ",
"      < < < <         #  . . .......| ; $ .... . . .....%       ",
"      1 X.X.2 3       . .  . ...4  . ..... . .5 6 ....% %       ",
"      o.O.X.O.7 3       . . 8 9 0 O.o. . .o.O.q w % % %         ",
"      e O.O.X.O.r < < <       3 O.o.X.X.X.X.o.O.3               ",
"      e o.O.O.O.X.X.X.< < < < 7 O.o.X.X.X.X.O.O.3               ",
"      t e O.O.O.O.O.X.X.X.X.X.y u O.+.X.X.+.O.3 3               ",
"        i o.O.O.O.O.O.O.X.X.X.X.X.O.X.X.X.O.O.3                 ",
"        t o.O.O.O.O.O.O.O.O.O.O.O.O.X.X.X.@.O.3                 ",
"        t o.O.O.O.O.O.O.O.O.O.O.O.O.@.#.@.O.O.3                 ",
"        t o.O.O.O.O.O.O.O.O.O.O.O.O.O.O.X.X.p 3                 ",
"        t o.O.O.O.O.O.O.O.O.O.O.O.O.X.@.@.@.a                   ",
"        t o.O.O.O.O.O.O.O.O.O.O.O.X.@.@.@.@.s                   ",
"        t o.o.O.O.o.o.O.O.O.O.O.O.X.@.@.@.O.d                   ",
"        t t o.o.o.o.$.o.O.O.O.O.O.O.X.o.$.f 3                   ",
"          t o.o.t g $.h o.O.O.O.O.o.o.$.j k                     ",
"          t l o.m M  .N e O.O.O.o.o.$.$.k                       ",
"            N %.B V #.C Z o.O.o.z $.$.$.k                       ",
"            A +.S D #.F G o.o.o.x k $.$.k                       ",
"            A +.H J K L P o.o.C Z N c $.v                       ",
"            N I U Y P L T L %.F G C  . .b                       ",
"            n N Z C G F P R +.E D F #.I N                       ",
"            n n n N Z C G W +.Q ! ~ #.^ A                       ",
"                n n n N Z / ( ) _ ` S ^ A                       ",
"                    n n n ' ] [ { } B I N                       ",
"                        n n N m Z Z m N n                       ",
"                                                                "
};
