/* XPM */
static char * water_xpm[] = {
"64 64 310 2",
"  	c None",
". 	c #73BED3",
"+ 	c #72BED3",
"@ 	c #7FC5D4",
"# 	c #80C5D5",
"$ 	c #7CC3D4",
"% 	c #76C0D3",
"& 	c #79C1D4",
"* 	c #9CD7D9",
"= 	c #92D1D7",
"- 	c #7EC4D4",
"; 	c #8CCDD6",
"> 	c #93D1D7",
", 	c #8BCCD6",
"' 	c #7FC5D5",
") 	c #96D4D8",
"! 	c #A4DDDB",
"~ 	c #90CFD7",
"{ 	c #7DC3D4",
"] 	c #93D1D8",
"^ 	c #8ECED7",
"/ 	c #85C8D5",
"( 	c #77C0D3",
"_ 	c #90D0D7",
": 	c #77C0D4",
"< 	c #7DC4D4",
"[ 	c #85C9D5",
"} 	c #8CCDD7",
"| 	c #80C6D5",
"1 	c #7BC1D3",
"2 	c #70B8CF",
"3 	c #6AB2CC",
"4 	c #6AB2CD",
"5 	c #79BDD0",
"6 	c #90CDD5",
"7 	c #9BD6D8",
"8 	c #92D0D7",
"9 	c #7FC4D4",
"0 	c #87C5D2",
"a 	c #6DADC7",
"b 	c #599CC1",
"c 	c #6EADC7",
"d 	c #8BC6D1",
"e 	c #98D2D6",
"f 	c #98D3D6",
"g 	c #8FCDD5",
"h 	c #7EC3D4",
"i 	c #91CFD6",
"j 	c #8FCAD3",
"k 	c #8DC8D2",
"l 	c #8DC7D1",
"m 	c #85BFCE",
"n 	c #73AEC6",
"o 	c #68A4C2",
"p 	c #72ACC5",
"q 	c #81BBCB",
"r 	c #88C2CE",
"s 	c #88C2CF",
"t 	c #86C2D0",
"u 	c #81C3D2",
"v 	c #79BFD2",
"w 	c #70B7CF",
"x 	c #86C9D6",
"y 	c #7BBED0",
"z 	c #71AFC8",
"A 	c #6AA6C3",
"B 	c #80BACB",
"C 	c #71ACC5",
"D 	c #67A3C1",
"E 	c #74AFC7",
"F 	c #85C2D0",
"G 	c #82C0CF",
"H 	c #6BABC6",
"I 	c #86C5D2",
"J 	c #95D3D8",
"K 	c #9AD6D9",
"L 	c #89C9D5",
"M 	c #76BBCF",
"N 	c #6BB3CD",
"O 	c #6AB3CD",
"P 	c #65ABC8",
"Q 	c #579ABF",
"R 	c #4E8EBA",
"S 	c #4F8FBA",
"T 	c #629EC0",
"U 	c #7CB6C9",
"V 	c #72ADC5",
"W 	c #84BECD",
"X 	c #7AC0D3",
"Y 	c #88CAD6",
"Z 	c #96D3D8",
"` 	c #77BCD0",
" .	c #65A8C6",
"..	c #599DC1",
"+.	c #5799BF",
"@.	c #5192BC",
"#.	c #4D8EBA",
"$.	c #5694BC",
"%.	c #629FC0",
"&.	c #69A4C2",
"*.	c #5594BC",
"=.	c #81BACB",
"-.	c #6BA6C3",
";.	c #71B8CF",
">.	c #89C6D2",
",.	c #82C4D3",
"'.	c #78BBCF",
").	c #6EACC6",
"!.	c #4E8FBA",
"~.	c #6FADC7",
"{.	c #79BCCF",
"].	c #6CB6CE",
"^.	c #70BBD1",
"/.	c #6CACC7",
"(.	c #75B1C8",
"_.	c #8CC9D3",
":.	c #8AC4D0",
"<.	c #619EBF",
"[.	c #87C1CE",
"}.	c #88C1CE",
"|.	c #89C4D0",
"1.	c #83C0CF",
"2.	c #61A6C6",
"3.	c #6DB6CE",
"4.	c #73BFD3",
"5.	c #71BCD2",
"6.	c #6DB6CF",
"7.	c #6BB4CD",
"8.	c #6AAFCA",
"9.	c #69A8C5",
"0.	c #77B1C7",
"a.	c #8CC6D0",
"b.	c #97D1D5",
"c.	c #76B1C7",
"d.	c #5593BC",
"e.	c #79BCD0",
"f.	c #6DB7CF",
"g.	c #5A9DC1",
"h.	c #68A7C4",
"i.	c #7DB9CB",
"j.	c #8BC5D0",
"k.	c #93CDD3",
"l.	c #97D0D5",
"m.	c #93CDD4",
"n.	c #68A3C2",
"o.	c #8AC5D0",
"p.	c #8DC9D3",
"q.	c #6BB4CE",
"r.	c #64A9C6",
"s.	c #5593B8",
"t.	c #4A84AF",
"u.	c #5F98B8",
"v.	c #7CB5C7",
"w.	c #88C3CF",
"x.	c #4F8FBB",
"y.	c #4F90BB",
"z.	c #7CB7CA",
"A.	c #88C0CB",
"B.	c #86BBC3",
"C.	c #78ABB8",
"D.	c #5C91AD",
"E.	c #538FB2",
"F.	c #63A8C4",
"G.	c #6CB4CE",
"H.	c #5492B8",
"I.	c #497CA4",
"J.	c #406C98",
"K.	c #416C98",
"L.	c #4E7EA5",
"M.	c #6098B8",
"N.	c #5695BC",
"O.	c #659BB5",
"P.	c #5D879A",
"Q.	c #507283",
"R.	c #40627D",
"S.	c #417091",
"T.	c #528FB2",
"U.	c #5A9EC1",
"V.	c #4B85B0",
"W.	c #477CA7",
"X.	c #406A96",
"Y.	c #3C5D8B",
"Z.	c #4B84AF",
"`.	c #4B87B2",
" +	c #4E8DB8",
".+	c #7CB6CA",
"++	c #8DC6D0",
"@+	c #4D8CB6",
"#+	c #4A84AD",
"$+	c #477FA7",
"%+	c #4880A8",
"&+	c #417298",
"*+	c #335373",
"=+	c #293856",
"-+	c #416D99",
";+	c #406995",
">+	c #3D628E",
",+	c #3C5D8A",
"'+	c #3D618E",
")+	c #3F6995",
"!+	c #406C99",
"~+	c #4476A2",
"{+	c #4B86B2",
"]+	c #619DBF",
"^+	c #4984AC",
"/+	c #3E6B8F",
"(+	c #365A7B",
"_+	c #36597A",
":+	c #35597B",
"<+	c #315172",
"[+	c #2A4060",
"}+	c #263554",
"|+	c #283654",
"1+	c #2C4261",
"2+	c #325272",
"3+	c #35587A",
"4+	c #3C5E8B",
"5+	c #406A95",
"6+	c #4C87B2",
"7+	c #72ADC6",
"8+	c #68A3C1",
"9+	c #66A0BF",
"0+	c #5189AD",
"a+	c #293957",
"b+	c #63A8C5",
"c+	c #4577A2",
"d+	c #87C0CC",
"e+	c #84BAC6",
"f+	c #74A5B3",
"g+	c #527B92",
"h+	c #34587A",
"i+	c #335273",
"j+	c #283755",
"k+	c #477FA8",
"l+	c #4478A1",
"m+	c #3F6893",
"n+	c #619BBC",
"o+	c #79AEBD",
"p+	c #83B5BB",
"q+	c #80AFB4",
"r+	c #6F989F",
"s+	c #4B6777",
"t+	c #273655",
"u+	c #3F7095",
"v+	c #457DA4",
"w+	c #33597E",
"x+	c #355A81",
"y+	c #3A5C87",
"z+	c #426D99",
"A+	c #426E99",
"B+	c #406D99",
"C+	c #518AAF",
"D+	c #568097",
"E+	c #587A86",
"F+	c #567582",
"G+	c #4C6877",
"H+	c #384D63",
"I+	c #283655",
"J+	c #2A3F5C",
"K+	c #2B4A68",
"L+	c #2D506E",
"M+	c #253A5E",
"N+	c #25395D",
"O+	c #2C456B",
"P+	c #34517B",
"Q+	c #375681",
"R+	c #385884",
"S+	c #3B5C89",
"T+	c #4A84AE",
"U+	c #4881A9",
"V+	c #283855",
"W+	c #263552",
"X+	c #253450",
"Y+	c #23304C",
"Z+	c #1C2741",
"`+	c #172038",
" @	c #2B446A",
".@	c #2C456C",
"+@	c #2C466C",
"@@	c #314D75",
"#@	c #3F6992",
"$@	c #395F84",
"%@	c #325273",
"&@	c #263454",
"*@	c #283856",
"=@	c #202D48",
"-@	c #1D2842",
";@	c #1D2841",
">@	c #1C2740",
",@	c #385680",
"'@	c #2F4568",
")@	c #37557F",
"!@	c #2E4466",
"~@	c #3C5E8C",
"{@	c #3B5D89",
"]@	c #395983",
"^@	c #345077",
"/@	c #2D4264",
"(@	c #395883",
"_@	c #334D73",
":@	c #2A3C5B",
"<@	c #334F77",
"[@	c #2B3F60",
"}@	c #253350",
"|@	c #1C2841",
"1@	c #293F63",
"2@	c #21314F",
"3@	c #223556",
"4@	c #1B2945",
"5@	c #172037",
"                                                                                                                                ",
"                                                                                                                                ",
"                                                                                                                                ",
"                                                                                                                                ",
"                                                                                                                                ",
"                                                                                                                                ",
"                                                                                                                                ",
"                                                                                                                                ",
"                                                                                                                                ",
"                                                                                                                                ",
"                                                                                                                                ",
"                                                                                                                                ",
"                                                                                                                                ",
"                                                                                                                                ",
"                                                                                                                                ",
"                                                                                                                                ",
"                                                            . . . .                                                             ",
"                                                            . . . .                                                             ",
"                                                        . . . . . . . . . .                                                     ",
"                                                        . . . . . . . . . .                                                     ",
"                                                . . . . . . . . . . . . . . . .                                                 ",
"                                                + . . . . . . . . . . . . . . .                                                 ",
"                                            . . . . . . . . . . . . . . . . . . . . . .                                         ",
"                                            @ # # $ % + + . . . . . . . . . . . . . . &                                         ",
"                                    * = # - ; > > , $ . . . . . . . . . . . . . . . . ' ) !                                     ",
"                                    ~ , { $ , > ] ^ / # # $ % . . . . . . % $ { ( . . ' _ )                                     ",
"                    . . . . . . . : < $ ( % $ # # / ^ ] > , $ . . . . . . { , , { . . : ' ' & .                                 ",
"                    . . . . . . . . . . . . . . . $ , > ] ^ / $ % + + % $ [ ^ , $ . . . . . . .                                 ",
"                . . . . . . . . . . . . . . . + + % $ # # [ ^ , $ . . $ , ^ [ { % . . . . . . . . . . .                         ",
"                . . . . . . . . . . . . . + + + + + + + . < } ^ / ' ' / ^ , $ . . . . . . . . . . . . .                         ",
"        . . . . . . . . . . . . . . . . . . . . . . . + + % $ / ^ > > ^ / $ % . . . . . . . . . . . . . . . . . . . . .         ",
"        . . . + . ( { { ( . + + + + + % $ # # # # | | 1 2 3 4 5 6 7 7 8 9 . . . . + + % $ { ( . . . . . . . . . . . . .         ",
". . . . . . . . . { , , { . . . . . . $ , > ] > > ] > 0 a b b c d e f g h . + . . . . { , , { . . . . . . . . . . . . . . .     ",
". . . . . ( { $ ( { , , { % $ # # ' # / ^ ] ] i j k l m n o o p q r s t u v w 2 1 # | x ^ , $ . . . . . . . . . . . . . . .     ",
". . . . . { , , { ( $ $ ( $ , > ] > > ^ / # # y z A A n q r r B C D D E F G H a I > ] ^ / { % . . . . . . . . . . . . . . .     ",
". . . . . { , , { . . . . $ , J K K J L M N O P Q R S T U s s U T R R T U B V n W l l I X . . . . . . . . . . . . . . . . .     ",
". . . . . ( { { ( . + + . % { Y Z Z Y `  ...b +.@.#.R $.%.&.&.%.$.#.#.*.T p =.q n -.A a ;.. . . . . . . . . . . . . . . . . . . ",
". . . . . . . . . . . . . . . 1 I >.,.'.).T *.R !.S S S S S S S R #.R *.%.V q q V o o ~.{.v 2 ].^.. . . . . . . . . . . . . . . ",
". . . . . . . . . . . . . . . w /.(.F _.:.U <.S R S S S R R R R S R S T U B V C B [.}.|._.1.H 2.3.. . . . . . . . . . . . . . . ",
". . . . . . . . . 4.. 5.6.7.N 8.9.0.a.b.b.a.c.T d.R #.R R #.R $.%.o &.V q U %.T U r s s r B p ~.e.X ;.f.5.. 4.. . . . . . . . . ",
". . . . . . . . . . . 3.2...g.h.i.j.k.l.b.m.a.U T S R S S R S T U s s q p T *.$.T o &.n.o C B o.p.1.H 2.3.. . . . . . . . . . . ",
". . . . . 4.. 5.6.q.N r.s.t.t.u.v.s w.s s a.k.a.0.o D n.n.D n.C B r r U T S R S S S x.!.y.%.z.A.B.C.D.E.F.7.G.f.5.. 4.. . . . . ",
". . . . . . . 3.2.g.g.H.I.J.K.L.M.o o D n.c.a.m.a.r r r r s r q p &.o %.$.R !.S R R R #.R N.%.O.P.Q.R.S.T.g.U.2.3.. . . . . . . ",
". 4.. 5.6.q.N r.s.V.t.W.X.Y.Y.X.W.Z.V.`. +%..+r s a.m.b.b.b.b.++0.%.*.R R !.S y.y.@+#+$+$+%+$+&+*+=+=+*+&+$+%+E.F.7.G.f.5.. 4.. ",
". . . 3.2.g.g.H.I.-+K.;+>+,+,+'+)+J.!+~+{+*.T D o 0.a.b.b.b.b.m.j.U ]+R R S S x.S ^+/+(+_+(+:+<+[+}+|+1+2+3+:+S.T.g.U.2.3.. . . ",
"7.G.7.r.s.V.t.W.X.4+Y.4+4+4+4+4+4+Y.4+5+W.6+ +!.y.%.z.s s r r s r q 7+8+9+u.0+%+$+&+*+a+=+a+a+a+a+a+a+a+a+=+a+*+&+$+%+E.b+q.G.q.",
"g.g.g.H.I.-+K.;+>+,+,+Y.4+4+4+4+Y.,+,+'+5+c+`.#.R *.T n.n.n.n.D o V q d+e+f+g+(+h+i+1+j+j+j+j+=+a+a+a+a+=+j+j+1+2+3+:+S.T.g.U.g.",
"k+k+k+l+m+4+4+4+4+4+4+4+4+4+4+4+4+4+4+Y.4+X.W.Z.V.Z.Z.6+ +S y.!.y.n+o+p+q+r+s+a+t+a+a+a+a+a+a+a+a+a+a+a+a+a+a+a+a+=+a+2+u+v+v+v+",
"w+w+w+x+y+,+Y.Y.4+4+4+4+4+4+4+4+4+4+4+4+Y.>+5+z+A+-+B+~+{+R R R R C+D+E+F+G+H+j+I+=+a+a+a+a+a+a+a+a+a+a+a+a+a+a+=+j+j+J+K+L+L+L+",
"M+N+M+O+P+Q+Q+R+S+4+4+4+4+4+4+4+4+4+4+4+4+4+4+4+4+Y.4+X.W.Z.V.T+U+&+*+a+=+a+a+a+a+a+a+a+a+a+a+a+a+a+a+a+a+a+a+V+W+X+X+Y+Z+`+`+`+",
"         @.@+@@@R+4+4+4+4+4+4+4+4+4+4+4+4+4+Y.,+,+,+,+>+5+A+A+#@$@%@[+&@&@t+*@a+a+a+a+a+a+a+a+a+a+a+a+a+a+a+a+W+=@-@;@>@        ",
"        M+N+M+O+P+Q+Q+R+S+4+4+4+4+4+4+4+4+4+4+4+4+4+4+4+4+4+4+,@'@a+=+a+a+a+a+a+a+a+a+a+a+a+a+a+a+a+a+V+W+X+X+Y+Z+`+`+`+        ",
"                O+.@+@@@R+4+4+4+4+4+4+4+4+4+4+4+4+4+4+4+Y.4+,+)@!@=+=+a+a+a+a+a+a+a+a+a+a+a+a+a+a+a+a+W+=@-@;@Z+                ",
"                M+N+M+O+P+Q+Q+R+S+4+4+4+4+4+4+4+4+4+4+4+4+4+4+,@'@a+=+a+a+a+a+a+a+a+a+a+a+a+a+V+W+X+X+Y+Z+`+`+`+                ",
"                        O+.@+@@@R+4+4+4+4+4+4+4+4+4+4+4+4+4+4+,@'@a+=+a+a+a+a+a+a+a+a+a+a+a+a+W+=@-@;@Z+                        ",
"                        M+N+M+O+P+Q+Q+R+S+4+4+4+4+4+4+4+4+4+4+,@'@a+=+a+a+a+a+a+a+a+a+V+W+X+X+Y+Z+`+`+`+                        ",
"                                O+.@+@@@R+4+4+4+4+4+4+4+4+4+4+,@'@a+=+a+a+a+a+a+a+a+a+W+=@-@;@Z+                                ",
"                                M+N+M+O+P+Q+Q+R+S+4+4+4+4+~@4+,@'@a+=+a+a+a+a+V+W+X+X+Y+Z+`+`+`+                                ",
"                                        O+.@+@@@R+4+4+4+4+4+4+,@'@a+=+a+a+a+a+W+=@-@;@Z+                                        ",
"                                        M+N+M+O+P+Q+Q+R+S+{@]@^@/@a+a+V+W+X+X+Y+Z+`+`+`+                                        ",
"                                                O+.@+@@@R+(@_@/@:@a+a+W+=@-@;@Z+                                                ",
"                                                M+N+M+.@P+<@[@X+}@X+X+Y+|@`+`+`+                                                ",
"                                                        O+1@2@|@Z+-@-@Z+                                                        ",
"                                                        M+3@4@`+5@`+`+`+                                                        "};
